<?xml version="1.0" encoding="utf-8"?>

<!DOCTYPE svg PUBLIC "-//W3C//DTD SVG 1.1//EN" "http://www.w3.org/Graphics/SVG/1.1/DTD/svg11.dtd">
<svg version="1.1" id="Layer_1" xmlns="http://www.w3.org/2000/svg" xmlns:xlink="http://www.w3.org/1999/xlink" x="0px" y="0px"
	 viewBox="0 0 1841.232 1623.351" enable-background="new 0 0 1841.232 1623.351" xml:space="preserve">
<path d="M1317.225,307.693V11.675H517.278v296.017H13.242v1303.983H1827.99V307.693H1317.225z M443.523,1289.005H147.714v-215.113
	h295.809V1289.005z M443.523,956.24H147.714V741.127h295.809V956.24z M443.523,623.529H147.714V408.362h295.809V623.529z
	 M797.893,133.005h80.957V51.786h64.871v81.219h81.325v64.922h-81.325v80.904H878.85v-80.904h-80.957V133.005z M544.141,408.362
	h295.809v215.167H544.141V408.362z M544.141,741.127h295.809V956.24H544.141V741.127z M544.141,1073.837h295.809v215.113H544.141
	V1073.837z M1236.637,1607.575H591.295v-204.441h645.342V1607.575z M1250.095,1289.005H954.393v-215.113h295.703V1289.005z
	 M1250.095,956.24H954.393V741.127h295.703V956.24z M1250.095,623.529H954.393V408.362h295.703V623.529z M1680.427,1289.005
	h-296.019v-215.113h296.019V1289.005z M1680.427,956.24h-296.019V741.127h296.019V956.24z M1680.427,623.529h-296.019V408.362
	h296.019V623.529z"/>
</svg>
